<svg xmlns="http://www.w3.org/2000/svg" xmlns:xlink="http://www.w3.org/1999/xlink" xmlns:lucid="lucid" width="1801" height="2064.21"><g transform="translate(0 -30)" lucid:page-tab-id="j_7v6LFCFDkc"><path d="M0 0h1870.87v2581.67H0z" fill="#fff"/><path d="M220 66c0-3.3 2.7-6 6-6h148c3.3 0 6 2.7 6 6v148c0 3.3-2.7 6-6 6H226c-3.3 0-6-2.7-6-6z" stroke="#5e5e5e" stroke-width="3" fill-opacity="0"/><use xlink:href="#a" transform="matrix(1,0,0,1,225,65) translate(14.629629629629633 82.43055555555556)"/><path d="M79.75 69.75c0 10.9-8.84 19.75-19.75 19.75-10.9 0-19.75-8.84-19.75-19.75C40.25 58.85 49.1 50 60 50c10.9 0 19.75 8.84 19.75 19.75z" stroke="#5e5e5e" stroke-width="3" fill-opacity="0"/><path d="M60 89.5v49.3c0 3.3 1.44 8.27 3.2 11.07L100 208m-40-63.2L20 208m0-98.75h80" stroke="#5e5e5e" stroke-width="3" fill="none"/><path d="M20 56c0-3.3 2.7-6 6-6h68c3.3 0 6 2.7 6 6v168c0 3.3-2.7 6-6 6H26c-3.3 0-6-2.7-6-6z" fill="none"/><use xlink:href="#b" transform="matrix(1,0,0,1,-60,208) translate(99.10493827160494 17.77777777777778)"/><path d="M50 326c0-3.3 2.7-6 6-6h728c3.3 0 6 2.7 6 6v808c0 3.3-2.7 6-6 6H56c-3.3 0-6-2.7-6-6zM960 86c0-3.3 2.7-6 6-6h808c3.3 0 6 2.7 6 6v613.8c0 3.3-2.7 6-6 6H966c-3.3 0-6-2.7-6-6zM1060 846c0-3.3 2.7-6 6-6h568c3.3 0 6 2.7 6 6v668c0 3.3-2.7 6-6 6h-568c-3.3 0-6-2.7-6-6z" stroke="#5e5e5e" stroke-width="3" fill-opacity="0"/><path d="M300 346c0-3.3 2.7-6 6-6h228c3.3 0 6 2.7 6 6v51.33c0 3.32-2.7 6-6 6H306c-3.3 0-6-2.68-6-6z" stroke="#000" stroke-opacity="0" stroke-width="3" fill="#fff" fill-opacity="0"/><use xlink:href="#c" transform="matrix(1,0,0,1,305,345) translate(15.740740740740762 38.93055555555556)"/><path d="M1180 87.67c0-3.32 2.7-6 6-6h378c3.3 0 6 2.68 6 6v104.66c0 3.32-2.7 6-6 6h-378c-3.3 0-6-2.68-6-6z" stroke="#000" stroke-opacity="0" stroke-width="3" fill="#fff" fill-opacity="0"/><use xlink:href="#d" transform="matrix(1,0,0,1,1185,86.66666666666666) translate(18.765432098765416 62.30555555555556)"/><path d="M1200 866c0-3.3 2.7-6 6-6h228c3.3 0 6 2.7 6 6v51.33c0 3.32-2.7 6-6 6h-228c-3.3 0-6-2.68-6-6z" stroke="#000" stroke-opacity="0" stroke-width="3" fill="#fff" fill-opacity="0"/><use xlink:href="#e" transform="matrix(1,0,0,1,1205,865) translate(45.49382716049382 38.93055555555556)"/><path d="M100 991c0-3.3 2.7-6 6-6h248c3.3 0 6 2.7 6 6v48c0 3.3-2.7 6-6 6H106c-3.3 0-6-2.7-6-6z" stroke="#000" stroke-opacity="0" stroke-width="3" fill="#fff" fill-opacity="0"/><use xlink:href="#f" transform="matrix(1,0,0,1,105,990) translate(-27.361111111111057 31.666666666666664)"/><path d="M141 140h59M141.03 140H140" stroke="#5e5e5e" stroke-width="2" fill="none"/><path d="M215.26 140L201 144.64v-9.28z" stroke="#5e5e5e" stroke-width="2" fill="#5e5e5e"/><path d="M300 222.5V300" stroke="#5e5e5e" stroke-width="2" fill="none"/><path d="M301 222.53h-2v-1.03h2z" fill="#5e5e5e"/><path d="M300 315.26L295.36 301h9.28z" stroke="#5e5e5e" stroke-width="2" fill="#5e5e5e"/><path d="M540 426c0-3.3 2.7-6 6-6h248c3.3 0 6 2.7 6 6v48c0 3.3-2.7 6-6 6H546c-3.3 0-6-2.7-6-6z" stroke="#000" stroke-opacity="0" stroke-width="3" fill="#fff" fill-opacity="0"/><use xlink:href="#g" transform="matrix(1,0,0,1,545,425) translate(27.962962962963005 32.91666666666666)"/><path d="M80 426c0-3.3 2.7-6 6-6h248c3.3 0 6 2.7 6 6v48c0 3.3-2.7 6-6 6H86c-3.3 0-6-2.7-6-6z" stroke="#000" stroke-opacity="0" stroke-width="3" fill="#fff" fill-opacity="0"/><use xlink:href="#h" transform="matrix(1,0,0,1,85,425) translate(-22.453703703703667 31.666666666666664)"/><path d="M120 1366c0-3.3 2.7-6 6-6h148c3.3 0 6 2.7 6 6v148c0 3.3-2.7 6-6 6H126c-3.3 0-6-2.7-6-6z" stroke="#5e5e5e" stroke-width="3" fill-opacity="0"/><use xlink:href="#i" transform="matrix(1,0,0,1,125,1365) translate(31.62037037037036 82.91666666666667)"/><path d="M120 706c0-3.3 2.7-6 6-6h308c3.3 0 6 2.7 6 6v78c0 3.3-2.7 6-6 6H126c-3.3 0-6-2.7-6-6z" stroke="#000" stroke-opacity="0" stroke-width="3" fill="#fff" fill-opacity="0"/><use xlink:href="#j" transform="matrix(1,0,0,1,125,705) translate(79.3981481481482 46.66666666666666)"/><path d="M480 721c0-3.3 2.7-6 6-6h248c3.3 0 6 2.7 6 6v48c0 3.3-2.7 6-6 6H486c-3.3 0-6-2.7-6-6z" stroke="#000" stroke-opacity="0" stroke-width="3" fill="#fff" fill-opacity="0"/><use xlink:href="#k" transform="matrix(1,0,0,1,485,720) translate(32.68518518518523 32.91666666666666)"/><path d="M1060 266c0-3.3 2.7-6 6-6h248c3.3 0 6 2.7 6 6v48c0 3.3-2.7 6-6 6h-248c-3.3 0-6-2.7-6-6z" stroke="#000" stroke-opacity="0" stroke-width="3" fill="#fff" fill-opacity="0"/><use xlink:href="#l" transform="matrix(1,0,0,1,1065,265) translate(27.962962962963005 32.91666666666666)"/><path d="M1120 376c0-3.3 2.7-6 6-6h248c3.3 0 6 2.7 6 6v48c0 3.3-2.7 6-6 6h-248c-3.3 0-6-2.7-6-6z" stroke="#000" stroke-opacity="0" stroke-width="3" fill="#fff" fill-opacity="0"/><use xlink:href="#m" transform="matrix(1,0,0,1,1125,375) translate(-22.453703703703667 31.666666666666664)"/><path d="M320 546c0-3.3 2.7-6 6-6h248c3.3 0 6 2.7 6 6v48c0 3.3-2.7 6-6 6H326c-3.3 0-6-2.7-6-6z" stroke="#000" stroke-opacity="0" stroke-width="3" fill="#fff" fill-opacity="0"/><use xlink:href="#n" transform="matrix(1,0,0,1,325,545) translate(-22.45370370370364 31.666666666666664)"/><path d="M1120 486c0-3.3 2.7-6 6-6h248c3.3 0 6 2.7 6 6v48c0 3.3-2.7 6-6 6h-248c-3.3 0-6-2.7-6-6z" stroke="#000" stroke-opacity="0" stroke-width="3" fill="#fff" fill-opacity="0"/><use xlink:href="#o" transform="matrix(1,0,0,1,1125,485) translate(-22.45370370370364 31.666666666666664)"/><path d="M441 745h20.5" stroke="#5e5e5e" stroke-width="2" fill="none"/><path d="M441.03 746H440v-2h1.03z" fill="#5e5e5e"/><path d="M476.76 745l-14.26 4.64v-9.28z" stroke="#5e5e5e" stroke-width="2" fill="#5e5e5e"/><path d="M117.5 1440H26c-3.3 0-6-2.7-6-6V752c0-3.3 2.7-6 6-6h151.5" stroke="#5e5e5e" stroke-width="2" fill="none"/><path d="M118.5 1441h-1.03v-2h1.03z" fill="#5e5e5e"/><path d="M192.76 746l-14.26 4.64v-9.28z" stroke="#5e5e5e" stroke-width="2" fill="#5e5e5e"/><path d="M270 984V808.5" stroke="#0c7cba" stroke-width="2" fill="none"/><path d="M271 985h-2v-1.03h2z" fill="#0c7cba"/><path d="M270 793.24l4.64 14.26h-9.28z" stroke="#0c7cba" stroke-width="2" fill="#0c7cba"/><path d="M1200 986c0-3.3 2.7-6 6-6h248c3.3 0 6 2.7 6 6v48c0 3.3-2.7 6-6 6h-248c-3.3 0-6-2.7-6-6z" stroke="#000" stroke-opacity="0" stroke-width="3" fill="#fff" fill-opacity="0"/><use xlink:href="#p" transform="matrix(1,0,0,1,1205,985) translate(27.22222222222227 32.91666666666666)"/><path d="M1200 1102.67c0-3.32 2.7-6 6-6h248c3.3 0 6 2.68 6 6v48c0 3.3-2.7 6-6 6h-248c-3.3 0-6-2.7-6-6z" stroke="#000" stroke-opacity="0" stroke-width="3" fill="#fff" fill-opacity="0"/><use xlink:href="#q" transform="matrix(1,0,0,1,1205,1101.6666666666665) translate(-28.47222222222217 31.666666666666664)"/><path d="M120 481v103c0 3.3 2.7 6 6 6h148c3.3 0 6 2.7 6 6v85.5" stroke="#de5f85" stroke-width="2" fill="none"/><path d="M121 481.03h-2V480h2z" fill="#de5f85"/><path d="M280 696.76l-4.64-14.26h9.28z" stroke="#de5f85" stroke-width="2" fill="#de5f85"/><path d="M388 601v43c0 3.3-2.7 6-6 6h-48c-3.3 0-6 2.7-6 6v25.5" stroke="#19967d" stroke-width="2" fill="none"/><path d="M389 601.03h-2V600h2z" fill="#19967d"/><path d="M328 696.76l-4.64-14.26h9.28z" stroke="#19967d" stroke-width="2" fill="#19967d"/><path d="M670 481v183c0 3.3-2.7 6-6 6H376c-3.3 0-6 2.7-6 6v5.5" stroke="#834187" stroke-width="2" fill="none"/><path d="M671 481.03h-2V480h2z" fill="#834187"/><path d="M370 696.76l-4.64-14.26h9.28z" stroke="#834187" stroke-width="2" fill="#834187"/><path d="M741 740h153c3.3 0 6-2.7 6-6V296c0-3.3 2.7-6 6-6h135.5" stroke="#834187" stroke-width="2" fill="none"/><path d="M741.03 741H740v-2h1.03z" fill="#834187"/><path d="M1056.76 290l-14.26 4.64v-9.28z" stroke="#834187" stroke-width="2" fill="#834187"/><path d="M901 507.8h86.9c.06 0 .1.06.1.1 0 .06.04.1.1.1h69.4M901.03 507.8H900" stroke="#19967d" stroke-width="2" fill="none"/><path d="M1072.76 508l-14.26 4.64v-9.28z" stroke="#19967d" stroke-width="2" fill="#19967d"/><path d="M901 400h146.5M901.03 400H900" stroke="#de5f85" stroke-width="2" fill="none"/><path d="M1062.76 400l-14.26 4.64v-9.28z" stroke="#de5f85" stroke-width="2" fill="#de5f85"/><path d="M898 741v263c0 3.3 2.7 6 6 6h277.5M898 741.03V740" stroke="#0c7cba" stroke-width="2" fill="none"/><path d="M1196.76 1010l-14.26 4.64v-9.28z" stroke="#0c7cba" stroke-width="2" fill="#0c7cba"/><path d="M1321 290h267c3.3 0 6 2.7 6 6v824.67c0 3.3-2.7 6-6 6h-109.5" stroke="#834187" stroke-width="2" fill="none"/><path d="M1321.03 291H1320v-2h1.03z" fill="#834187"/><path d="M1463.24 1126.67l14.26-4.64v9.27z" stroke="#834187" stroke-width="2" fill="#834187"/><path d="M1425 404h150.5M1425.03 404H1421" stroke="#de5f85" stroke-width="2" fill="none"/><path d="M1590.76 404l-14.26 4.64v-9.28z" stroke="#de5f85" stroke-width="2" fill="#de5f85"/><path d="M1435 510h140.5M1435.03 510H1434" stroke="#19967d" stroke-width="2" fill="none"/><path d="M1590.76 510l-14.26 4.64v-9.28z" stroke="#19967d" stroke-width="2" fill="#19967d"/><path d="M520 1660.2c0-3.3 2.7-6 6-6h548c3.3 0 6 2.7 6 6v408c0 3.32-2.7 6-6 6H526c-3.3 0-6-2.68-6-6z" stroke="#5e5e5e" stroke-width="3" fill-opacity="0"/><path d="M660 1686c0-3.3 2.7-6 6-6h228c3.3 0 6 2.7 6 6v51.33c0 3.32-2.7 6-6 6H666c-3.3 0-6-2.68-6-6z" stroke="#000" stroke-opacity="0" stroke-width="3" fill="#fff" fill-opacity="0"/><use xlink:href="#r" transform="matrix(1,0,0,1,665,1685) translate(45.98765432098766 38.93055555555556)"/><path d="M560 1786c0-3.3 2.7-6 6-6h248c3.3 0 6 2.7 6 6v48c0 3.3-2.7 6-6 6H566c-3.3 0-6-2.7-6-6z" stroke="#000" stroke-opacity="0" stroke-width="3" fill="#fff" fill-opacity="0"/><use xlink:href="#s" transform="matrix(1,0,0,1,565,1785) translate(54.95370370370374 32.91666666666666)"/><path d="M560 1846c0-3.3 2.7-6 6-6h248c3.3 0 6 2.7 6 6v48c0 3.3-2.7 6-6 6H566c-3.3 0-6-2.7-6-6z" stroke="#000" stroke-opacity="0" stroke-width="3" fill="#fff" fill-opacity="0"/><use xlink:href="#t" transform="matrix(1,0,0,1,565,1845) translate(75.09259259259261 32.91666666666666)"/><path d="M560 1926c0-3.3 2.7-6 6-6h248c3.3 0 6 2.7 6 6v48c0 3.3-2.7 6-6 6H566c-3.3 0-6-2.7-6-6z" stroke="#000" stroke-opacity="0" stroke-width="3" fill="#fff" fill-opacity="0"/><use xlink:href="#u" transform="matrix(1,0,0,1,565,1925) translate(75.1388888888889 32.91666666666666)"/><path d="M1461 1010h303c3.3 0 6 2.7 6 6v788c0 3.3-2.7 6-6 6H838.5" stroke="#0c7cba" stroke-width="2" fill="none"/><path d="M1461.03 1011H1460v-2h1.03z" fill="#0c7cba"/><path d="M823.24 1810l14.26-4.64v9.28z" stroke="#0c7cba" stroke-width="2" fill="#0c7cba"/><path d="M1200 1326c0-3.3 2.7-6 6-6h248c3.3 0 6 2.7 6 6v48c0 3.3-2.7 6-6 6h-248c-3.3 0-6-2.7-6-6z" stroke="#000" stroke-opacity="0" stroke-width="3" fill="#fff" fill-opacity="0"/><use xlink:href="#v" transform="matrix(1,0,0,1,1205,1325) translate(65.87962962962965 32.91666666666666)"/><path d="M1200 1426c0-3.3 2.7-6 6-6h248c3.3 0 6 2.7 6 6v48c0 3.3-2.7 6-6 6h-248c-3.3 0-6-2.7-6-6z" stroke="#000" stroke-opacity="0" stroke-width="3" fill="#fff" fill-opacity="0"/><use xlink:href="#w" transform="matrix(1,0,0,1,1205,1425) translate(51.20370370370374 32.91666666666666)"/><path d="M1200 1206c0-3.3 2.7-6 6-6h248c3.3 0 6 2.7 6 6v48c0 3.3-2.7 6-6 6h-248c-3.3 0-6-2.7-6-6z" stroke="#000" stroke-opacity="0" stroke-width="3" fill="#fff" fill-opacity="0"/><use xlink:href="#x" transform="matrix(1,0,0,1,1205,1204.9999999999982) translate(15.972222222222271 32.91666666666666)"/><path d="M1330 1157.67v23.83" stroke="#834187" stroke-width="2" fill="none"/><path d="M1331 1157.7h-2v-1.03h2z" fill="#834187"/><path d="M1330 1196.76l-4.64-14.26h9.28z" stroke="#834187" stroke-width="2" fill="#834187"/><path d="M1499 1228h252.5M1499.03 1228H1498" stroke="#834187" stroke-width="2" fill="none"/><path d="M1766.76 1228l-14.26 4.64v-9.28z" stroke="#834187" stroke-width="2" fill="#834187"/><path d="M1461 1350h233c3.3 0 6 2.7 6 6v508c0 3.3-2.7 6-6 6H838.5" stroke="#7ab648" stroke-width="2" fill="none"/><path d="M1461.03 1351H1460v-2h1.03z" fill="#7ab648"/><path d="M823.24 1870l14.26-4.64v9.28z" stroke="#7ab648" stroke-width="2" fill="#7ab648"/><path d="M1461 1450h273c3.3 0 6 2.7 6 6v488c0 3.3-2.7 6-6 6H838.5" stroke="#c92d39" stroke-width="2" fill="none"/><path d="M1461.03 1451H1460v-2h1.03z" fill="#c92d39"/><path d="M823.24 1950l14.26-4.64v9.28z" stroke="#c92d39" stroke-width="2" fill="#c92d39"/><defs><path fill="#333" d="M76-115c0 75 46 117 116 94v-68l-30-5v-13h108v13l-23 5v77C218-3 181 4 145 4 67 4 18-36 18-115c0-83 46-123 130-123 37-1 66 6 91 15v54h-15c2-41-32-51-70-51-60 0-78 41-78 105" id="y"/><path fill="#333" d="M12-83c0-55 22-85 75-86 52-1 66 33 63 88H64c-1 37 6 64 44 63 14 0 28-4 39-6 3 28-28 25-55 27-57 4-80-31-80-86zm90-17c2-26 0-63-27-48-10 9-11 28-11 48h38" id="z"/><path fill="#333" d="M90-170c54-1 76 32 76 87 1 56-23 87-77 87-53 0-75-32-75-87s23-86 76-87zM89-14c28-2 26-38 26-69s3-69-26-69c-27 0-24 39-24 69s-3 66 24 69" id="A"/><path fill="#333" d="M15-82c-4-69 47-101 113-83l-1-69-17-4v-12h68v234l18 4V0h-63l-4-9C77 23 5-9 15-82zm112-66c-43-16-64 17-61 65 2 33 3 67 32 67 12 0 22-3 29-8v-124" id="B"/><g id="a"><use transform="matrix(0.12345679012345678,0,0,0.12345679012345678,0,0)" xlink:href="#y"/><use transform="matrix(0.12345679012345678,0,0,0.12345679012345678,34.5679012345679,0)" xlink:href="#z"/><use transform="matrix(0.12345679012345678,0,0,0.12345679012345678,54.19753086419753,0)" xlink:href="#A"/><use transform="matrix(0.12345679012345678,0,0,0.12345679012345678,76.41975308641975,0)" xlink:href="#B"/><use transform="matrix(0.12345679012345678,0,0,0.12345679012345678,101.1111111111111,0)" xlink:href="#z"/></g><path fill="#333" d="M134-16c44-1 70-21 70-64v-142l-32-4v-10h80v10l-30 4v141c0 57-33 84-91 85-58 0-93-26-93-82v-144l-30-4v-10h94v10l-30 4c7 82-31 209 62 206" id="C"/><path fill="#333" d="M41-130c7 48 86 23 86 84 0 56-69 57-112 41v-40c20 0 9 29 31 31 35 19 77-26 41-50-27-18-72-13-72-59 0-50 58-52 100-41v36c-19 1-8-25-28-25-21-7-50-1-46 23" id="D"/><path fill="#333" d="M84-170c49 0 66 33 63 87H46c-8 60 38 80 95 63v10C128-2 108 4 88 4 34 4 14-29 14-84c-1-54 22-86 70-86zm33 73c12-57-57-82-69-24-1 7-2 15-2 24h71" id="E"/><path fill="#333" d="M57-145c16-10 35-24 60-25v45c-19 1-8-30-40-17l-20 6v124l29 4v8H7v-8l21-4v-141c-8-3-24 2-21-12h48" id="F"/><g id="b"><use transform="matrix(0.06172839506172839,0,0,0.06172839506172839,0,0)" xlink:href="#C"/><use transform="matrix(0.06172839506172839,0,0,0.06172839506172839,15.987654320987653,0)" xlink:href="#D"/><use transform="matrix(0.06172839506172839,0,0,0.06172839506172839,24.629629629629626,0)" xlink:href="#E"/><use transform="matrix(0.06172839506172839,0,0,0.06172839506172839,34.44444444444444,0)" xlink:href="#F"/></g><path fill="#333" d="M76-116c0 86 71 126 135 84l6-39h16l-1 60C138 21 18 1 18-115c0-117 106-141 210-112l1 57h-16l-5-34c-13-9-32-16-54-16-60 0-78 42-78 104" id="G"/><path fill="#333" d="M127-114c3-31-26-38-50-25v123l15 4V0H10v-12l16-4v-133l-16-5v-11h64l2 14c31-23 102-32 102 30v105l17 4V0h-82v-12l14-4v-98" id="H"/><path fill="#333" d="M78-41c-2 24 21 26 40 20C122 3 98 2 77 4 5 10 32-84 27-147H6v-11l25-7 21-38h26v38h35v18H78v106" id="I"/><path fill="#333" d="M132-132c-21 0-37 9-50 16v100l26 4V0H10v-12l21-4v-133l-21-5v-11h69l2 34c17-18 35-41 71-40v61c-17 3-14-14-20-22" id="J"/><path fill="#333" d="M76-16l18 4V0H7v-12l18-4v-218l-17-4v-12h68v234" id="K"/><g id="c"><use transform="matrix(0.12345679012345678,0,0,0.12345679012345678,0,0)" xlink:href="#G"/><use transform="matrix(0.12345679012345678,0,0,0.12345679012345678,31.975308641975307,0)" xlink:href="#A"/><use transform="matrix(0.12345679012345678,0,0,0.12345679012345678,54.19753086419753,0)" xlink:href="#H"/><use transform="matrix(0.12345679012345678,0,0,0.12345679012345678,78.88888888888889,0)" xlink:href="#I"/><use transform="matrix(0.12345679012345678,0,0,0.12345679012345678,93.58024691358024,0)" xlink:href="#J"/><use transform="matrix(0.12345679012345678,0,0,0.12345679012345678,112.34567901234567,0)" xlink:href="#A"/><use transform="matrix(0.12345679012345678,0,0,0.12345679012345678,134.5679012345679,0)" xlink:href="#K"/><use transform="matrix(0.12345679012345678,0,0,0.12345679012345678,146.91358024691357,0)" xlink:href="#K"/><use transform="matrix(0.12345679012345678,0,0,0.12345679012345678,159.25925925925924,0)" xlink:href="#z"/><use transform="matrix(0.12345679012345678,0,0,0.12345679012345678,178.88888888888886,0)" xlink:href="#J"/></g><path fill="#333" d="M91-218c7 77-29 197 56 197 84 0 47-121 55-197l-31-5v-13h80v13l-27 5v137c-1 56-32 84-91 84-59-1-96-26-97-85v-136l-27-5v-13h112v13" id="L"/><path fill="#333" d="M77-16l18 4V0H8v-12l18-4v-133l-17-5v-11h68v149zM51-196c-16 0-27-10-27-27s10-27 27-27 27 11 27 27c0 17-10 27-27 27" id="M"/><path fill="#333" d="M102-142c-14-17-68-15-54 18 24 26 83 17 83 72 0 62-72 62-120 47v-45h12c4 23 16 37 43 37 35 0 39-37 9-46-31-9-65-19-64-61 0-52 59-55 108-45v43h-11" id="N"/><path fill="#333" d="M154-149l38 94 32-94-20-5v-11h54v11l-13 4L190 4h-21l-38-93L93 4H72L13-149c-7-2-15-4-12-16h82v11l-20 5 36 94 38-94h17" id="O"/><path fill="#333" d="M31-163c51-5 127-20 127 40v107l17 4V0h-61l-4-13C82 13 12 12 12-46c0-51 46-52 95-53 9-45-22-69-57-44l-7 20H31v-40zM62-47c0 30 26 34 45 23v-59c-28 0-45 6-45 36" id="P"/><path fill="#333" d="M186-86c2 69-46 103-114 85l1 62 25 4v12H5V65l18-4v-210l-18-5v-11h67v8c12-8 26-13 46-13 49 2 67 30 68 84zm-83 71c28 0 31-33 31-69 0-34-2-66-30-66-12 0-23 3-31 7v124c9 2 20 4 30 4" id="Q"/><path fill="#333" d="M222-170c0 37-18 56-47 65l63 87 25 5V0h-76l-66-100H92v82l30 5V0H8v-13l28-5v-200l-30-5v-13c89 5 214-24 216 66zM92-119c45 2 75-3 75-50s-30-49-75-47v97" id="R"/><path fill="#333" d="M73-51c-3 31 27 38 51 25v-123l-16-5v-11h66v149l17 4V0h-65l-2-14C94 9 22 18 22-44v-105l-17-5v-11h68v114" id="S"/><path fill="#333" d="M90-239c59 0 76 52 76 120S152 4 89 4C31 4 14-51 14-119c0-67 17-120 76-120zm12 218c20-45 19-147 0-194-29-20-34 20-36 53-1 47-4 109 11 141 6 10 21 10 25 0" id="T"/><path fill="#333" d="M23-231c66-19 162-2 134 80C139-97 87-78 49-40h116V0H15v-33c34-46 90-67 94-145 2-38-37-54-63-33l-8 34H23v-54" id="U"/><g id="d"><use transform="matrix(0.12345679012345678,0,0,0.12345679012345678,0,0)" xlink:href="#L"/><use transform="matrix(0.12345679012345678,0,0,0.12345679012345678,31.975308641975307,0)" xlink:href="#H"/><use transform="matrix(0.12345679012345678,0,0,0.12345679012345678,56.666666666666664,0)" xlink:href="#M"/><use transform="matrix(0.12345679012345678,0,0,0.12345679012345678,69.01234567901234,0)" xlink:href="#N"/><use transform="matrix(0.12345679012345678,0,0,0.12345679012345678,86.29629629629629,0)" xlink:href="#O"/><use transform="matrix(0.12345679012345678,0,0,0.12345679012345678,118.2716049382716,0)" xlink:href="#P"/><use transform="matrix(0.12345679012345678,0,0,0.12345679012345678,140.49382716049382,0)" xlink:href="#Q"/><use transform="matrix(0.12345679012345678,0,0,0.12345679012345678,165.1851851851852,0)" xlink:href="#R"/><use transform="matrix(0.12345679012345678,0,0,0.12345679012345678,197.1604938271605,0)" xlink:href="#A"/><use transform="matrix(0.12345679012345678,0,0,0.12345679012345678,219.38271604938274,0)" xlink:href="#S"/><use transform="matrix(0.12345679012345678,0,0,0.12345679012345678,244.0740740740741,0)" xlink:href="#I"/><use transform="matrix(0.12345679012345678,0,0,0.12345679012345678,258.7654320987655,0)" xlink:href="#z"/><use transform="matrix(0.12345679012345678,0,0,0.12345679012345678,278.3950617283951,0)" xlink:href="#J"/><use transform="matrix(0.12345679012345678,0,0,0.12345679012345678,298.0246913580247,0)" xlink:href="#T"/><use transform="matrix(0.12345679012345678,0,0,0.12345679012345678,320.24691358024694,0)" xlink:href="#U"/></g><path fill="#333" d="M9 41c2-18 18-26 32-33C29 1 16-9 16-28l29-33c-21-9-31-25-31-51-2-56 61-65 111-53l39-20c13 12-9 24-14 36 35 54-17 114-90 92-17 34 27 28 56 28 36-1 61 12 60 46-2 46-39 62-91 62-38 0-71-6-76-38zm35-3c6 35 97 29 94-9-2-28-50-14-78-17-8 7-15 14-16 26zm20-150c0 22 4 40 23 40 20 0 24-17 24-40 0-24-4-40-24-40-19 0-23 17-23 40" id="V"/><path fill="#333" d="M54 0v-13l38-5v-199l-66 3-4 44H6v-66h229v66h-17l-4-44c-17-2-44-3-67-3v199l38 5V0H54" id="W"/><path fill="#333" d="M77-79l64-71-17-4v-11h63v11c-32 3-40 30-59 46l57 92 15 4V0h-80c-2-11 3-15 10-16L97-74 77-60v44l16 4V0H10v-12l16-4v-218l-17-4v-12h68v171" id="X"/><g id="e"><use transform="matrix(0.12345679012345678,0,0,0.12345679012345678,0,0)" xlink:href="#V"/><use transform="matrix(0.12345679012345678,0,0,0.12345679012345678,22.22222222222222,0)" xlink:href="#W"/><use transform="matrix(0.12345679012345678,0,0,0.12345679012345678,47.77777777777777,0)" xlink:href="#A"/><use transform="matrix(0.12345679012345678,0,0,0.12345679012345678,70,0)" xlink:href="#X"/><use transform="matrix(0.12345679012345678,0,0,0.12345679012345678,94.69135802469135,0)" xlink:href="#z"/><use transform="matrix(0.12345679012345678,0,0,0.12345679012345678,114.32098765432099,0)" xlink:href="#H"/></g><path fill="#0c7cba" d="M141-152c28 39 5 97-54 97-9 0-20-2-27-3L49-35c29 22 130-14 124 52-4 45-38 57-88 61C21 83-8 26 45-2 33-6 22-15 21-31l28-31c-19-9-28-26-28-51-2-51 53-65 100-52l38-20 7 8zM85 64c35 0 61-11 61-42 0-35-57-17-89-21-9 8-16 19-17 34 0 25 19 29 45 29zM52-113c1 26 7 46 35 44 28-1 34-16 35-44 0-26-6-43-34-43s-36 17-36 43" id="Y"/><path fill="#0c7cba" d="M55 0v-9l38-5v-207c-22 1-53 0-70 4l-5 37H7v-56h207v56h-12l-5-37-70-3v206l37 5v9H55" id="Z"/><path fill="#0c7cba" d="M90-170c52 0 76 32 76 87 0 54-24 87-77 87-51 0-75-34-75-87 0-54 24-87 76-87zM89-10c39 0 46-35 46-73 0-39-7-73-46-73-39 1-44 34-44 73s6 72 44 73" id="aa"/><path fill="#0c7cba" d="M60-80l68-73c-7-3-20 0-17-12h58c3 13-13 9-20 12l-47 48 60 93c7 3 21-1 18 12h-68c-3-12 9-9 15-12L82-83 60-60v48c7 3 21-1 18 12H10v-8l21-4v-226l-24-4v-8h53v170" id="ab"/><path fill="#0c7cba" d="M84-170c49 0 66 33 63 87H46c-8 60 38 80 95 63v10C128-2 108 4 88 4 34 4 14-29 14-84c-1-54 22-86 70-86zm33 73c12-57-57-82-69-24-1 7-2 15-2 24h71" id="ac"/><path fill="#0c7cba" d="M125-118c4-37-41-34-68-26v132l23 4v8H8C5-13 21-9 28-12v-141c-7-3-23 1-20-12h47l2 13c31-23 98-29 98 31v109c7 3 23-1 20 12h-72v-8l22-4v-106" id="ad"/><path fill="#0c7cba" d="M57-145c16-10 35-24 60-25v45c-19 1-8-30-40-17l-20 6v124l29 4v8H7v-8l21-4v-141c-8-3-24 2-21-12h48" id="ae"/><path fill="#0c7cba" d="M32-163c41-10 102-14 102 39v112c8 3 24-2 21 12h-45l-4-17C83 13 3 13 13-46c-2-50 45-50 92-51 4-36-5-70-42-56-6 2-12 4-16 6-4 7 0 23-15 20v-36zM42-47c0 41 41 33 63 22v-59c-34 1-63-1-63 37" id="af"/><path fill="#0c7cba" d="M41-130c7 48 86 23 86 84 0 56-69 57-112 41v-40c20 0 9 29 31 31 35 19 77-26 41-50-27-18-72-13-72-59 0-50 58-52 100-41v36c-19 1-8-25-28-25-21-7-50-1-46 23" id="ag"/><path fill="#0c7cba" d="M103-236c-39-15-35 32-34 71h44v15H69v136l35 6v8H15v-8l25-6v-136H11v-9l29-7c-6-59 23-100 80-84v36c-15 2-12-14-17-22" id="ah"/><path fill="#0c7cba" d="M75-106v92l39 5v9H13v-9l28-5v-208l-31-4v-10h177v57h-11l-6-38c-28-4-63-3-95-3v98h69l5-28h11v73h-11l-5-29H75" id="ai"/><path fill="#0c7cba" d="M126-118c4-37-42-32-68-25v131l24 4v8H8C5-13 21-9 28-12v-141c-7-3-23 1-20-12h48l1 13c22-15 77-30 92 2 32-22 104-36 104 29v109c8 3 24-2 21 12h-75v-8l25-4v-106c3-39-45-31-72-24 7 37 1 88 3 130l25 4v8h-78v-8l24-4v-106" id="aj"/><path fill="#0c7cba" d="M108-235c-52 28-62 95-58 178 3 56 21 97 58 119v15C7 49-17-153 67-223c12-10 25-19 41-27v15" id="ak"/><path fill="#0c7cba" d="M12-250C113-222 137-19 52 49 40 59 28 69 12 77V62C56 37 70-16 70-87c0-70-13-123-58-148v-15" id="al"/><g id="f"><use transform="matrix(0.09259259259259256,0,0,0.09259259259259256,0,0)" xlink:href="#Y"/><use transform="matrix(0.09259259259259256,0,0,0.09259259259259256,16.66666666666666,0)" xlink:href="#Z"/><use transform="matrix(0.09259259259259256,0,0,0.09259259259259256,34.62962962962962,0)" xlink:href="#aa"/><use transform="matrix(0.09259259259259256,0,0,0.09259259259259256,51.296296296296276,0)" xlink:href="#ab"/><use transform="matrix(0.09259259259259256,0,0,0.09259259259259256,67.96296296296293,0)" xlink:href="#ac"/><use transform="matrix(0.09259259259259256,0,0,0.09259259259259256,82.68518518518515,0)" xlink:href="#ad"/><use transform="matrix(0.09259259259259256,0,0,0.09259259259259256,99.35185185185179,0)" xlink:href="#Z"/><use transform="matrix(0.09259259259259256,0,0,0.09259259259259256,118.42592592592587,0)" xlink:href="#ae"/><use transform="matrix(0.09259259259259256,0,0,0.09259259259259256,129.44444444444437,0)" xlink:href="#af"/><use transform="matrix(0.09259259259259256,0,0,0.09259259259259256,144.1666666666666,0)" xlink:href="#ad"/><use transform="matrix(0.09259259259259256,0,0,0.09259259259259256,160.83333333333326,0)" xlink:href="#ag"/><use transform="matrix(0.09259259259259256,0,0,0.09259259259259256,173.79629629629622,0)" xlink:href="#ah"/><use transform="matrix(0.09259259259259256,0,0,0.09259259259259256,184.81481481481472,0)" xlink:href="#ac"/><use transform="matrix(0.09259259259259256,0,0,0.09259259259259256,199.53703703703695,0)" xlink:href="#ae"/><use transform="matrix(0.09259259259259256,0,0,0.09259259259259256,210.55555555555543,0)" xlink:href="#ai"/><use transform="matrix(0.09259259259259256,0,0,0.09259259259259256,229.07407407407396,0)" xlink:href="#ae"/><use transform="matrix(0.09259259259259256,0,0,0.09259259259259256,240.09259259259247,0)" xlink:href="#aa"/><use transform="matrix(0.09259259259259256,0,0,0.09259259259259256,256.7592592592591,0)" xlink:href="#aj"/><use transform="matrix(0.09259259259259256,0,0,0.09259259259259256,282.68518518518505,0)" xlink:href="#ak"/><use transform="matrix(0.09259259259259256,0,0,0.09259259259259256,293.7037037037036,0)" xlink:href="#al"/></g><path fill="#834187" d="M32-163c41-10 102-14 102 39v112c8 3 24-2 21 12h-45l-4-17C83 13 3 13 13-46c-2-50 45-50 92-51 4-36-5-70-42-56-6 2-12 4-16 6-4 7 0 23-15 20v-36zM42-47c0 41 41 33 63 22v-59c-34 1-63-1-63 37" id="am"/><path fill="#834187" d="M13-81c0-71 46-101 114-85l-1-72-28-4v-8h57v238c8 3 24-2 21 12h-47l-2-12C80 23 13-1 13-81zm77-74c-37 1-44 33-45 74 0 38 9 66 45 66 14 0 27-3 36-7v-130c-10-1-24-3-36-3" id="an"/><path fill="#834187" d="M111-226l-36 4v207c33-1 73 2 101-4l11-49h11l-3 68H10v-9l31-5v-208l-31-4v-10h101v10" id="ao"/><path fill="#834187" d="M47-200c-23 0-25-39 0-38 13 0 18 7 20 19-1 11-8 19-20 19zM65-12l28 4v8H8v-8l28-4v-141l-24-4v-8h53v153" id="ap"/><path fill="#834187" d="M13-82c-2-68 46-101 114-84 8-3 15-8 28-7V64l18 4v9h-70v-9l23-4c1-25-2-53 2-75-11 8-27 15-47 15-49-1-66-35-68-86zm113-70c-53-13-86 12-81 70-6 54 34 80 81 61v-131" id="aq"/><path fill="#834187" d="M124-13C89 8 26 15 26-45v-108c-8-3-24 2-21-12h50v118c-3 37 42 32 69 25v-131l-25-4v-8h54v153c8 3 24-2 21 12h-48" id="ar"/><path fill="#834187" d="M54-38c-1 25 24 26 44 20v12C71 10 25 9 25-35v-115H4c-2-14 14-10 21-15l18-38h11v38h38v15H54v112" id="as"/><path fill="#834187" d="M161-154L85 37C75 66 49 86 8 75V39c18-2 6 24 29 21 30-4 38-32 47-58L21-153c-7-3-20 0-17-12h77v8l-26 4 45 116 43-116-26-4v-8h62v8" id="at"/><path fill="#834187" d="M108-235c-52 28-62 95-58 178 3 56 21 97 58 119v15C7 49-17-153 67-223c12-10 25-19 41-27v15" id="au"/><path fill="#834187" d="M12-250C113-222 137-19 52 49 40 59 28 69 12 77V62C56 37 70-16 70-87c0-70-13-123-58-148v-15" id="av"/><g id="g"><use transform="matrix(0.09259259259259256,0,0,0.09259259259259256,0,0)" xlink:href="#am"/><use transform="matrix(0.09259259259259256,0,0,0.09259259259259256,14.722222222222218,0)" xlink:href="#an"/><use transform="matrix(0.09259259259259256,0,0,0.09259259259259256,31.38888888888888,0)" xlink:href="#an"/><use transform="matrix(0.09259259259259256,0,0,0.09259259259259256,48.055555555555536,0)" xlink:href="#ao"/><use transform="matrix(0.09259259259259256,0,0,0.09259259259259256,68.33333333333331,0)" xlink:href="#ap"/><use transform="matrix(0.09259259259259256,0,0,0.09259259259259256,77.59259259259257,0)" xlink:href="#aq"/><use transform="matrix(0.09259259259259256,0,0,0.09259259259259256,94.25925925925922,0)" xlink:href="#ar"/><use transform="matrix(0.09259259259259256,0,0,0.09259259259259256,110.92592592592588,0)" xlink:href="#ap"/><use transform="matrix(0.09259259259259256,0,0,0.09259259259259256,120.18518518518515,0)" xlink:href="#an"/><use transform="matrix(0.09259259259259256,0,0,0.09259259259259256,136.8518518518518,0)" xlink:href="#ap"/><use transform="matrix(0.09259259259259256,0,0,0.09259259259259256,146.11111111111106,0)" xlink:href="#as"/><use transform="matrix(0.09259259259259256,0,0,0.09259259259259256,155.37037037037032,0)" xlink:href="#at"/><use transform="matrix(0.09259259259259256,0,0,0.09259259259259256,172.03703703703698,0)" xlink:href="#au"/><use transform="matrix(0.09259259259259256,0,0,0.09259259259259256,183.0555555555555,0)" xlink:href="#av"/></g><path fill="#de5f85" d="M41-130c7 48 86 23 86 84 0 56-69 57-112 41v-40c20 0 9 29 31 31 35 19 77-26 41-50-27-18-72-13-72-59 0-50 58-52 100-41v36c-19 1-8-25-28-25-21-7-50-1-46 23" id="aw"/><path fill="#de5f85" d="M240-154L185 4h-14l-41-109L90 4H77L20-153c-7-3-23 1-20-12h79v8l-27 4L91-41l40-108h14l40 109 38-113-28-4v-8h63v8" id="ax"/><path fill="#de5f85" d="M32-163c41-10 102-14 102 39v112c8 3 24-2 21 12h-45l-4-17C83 13 3 13 13-46c-2-50 45-50 92-51 4-36-5-70-42-56-6 2-12 4-16 6-4 7 0 23-15 20v-36zM42-47c0 41 41 33 63 22v-59c-34 1-63-1-63 37" id="ay"/><path fill="#de5f85" d="M166-85c3 67-44 102-111 85l1 64 29 4v9H6v-9l21-4v-217c-7-3-22 1-19-12h46l1 9c11-8 26-14 45-14 47 2 64 36 66 85zM56-13c53 14 83-14 78-72 7-53-33-79-78-60v132" id="az"/><path fill="#de5f85" d="M10-9l31-5v-208l-31-4v-10h177v57h-11l-6-38c-28-4-63-3-95-3v92h63l6-28h11v73h-11l-6-29H75v96l105-3 10-43h12l-3 62H10v-9" id="aA"/><path fill="#de5f85" d="M156-12c7 3 23-1 20 12h-75v-8l22-4-38-58-45 58 23 4v8H3v-8l19-3 55-71-48-71c-7-3-23 1-20-12h75v8l-22 4 32 48 37-48-23-4v-8h59v8l-19 3-46 60" id="aB"/><path fill="#de5f85" d="M45-84c0 64 52 80 104 63 1 25-30 25-55 25-56 0-80-32-80-88 0-76 62-98 131-80v46h-10c-5-15-4-31-23-35-47-10-67 21-67 69" id="aC"/><path fill="#de5f85" d="M54-38c-1 25 24 26 44 20v12C71 10 25 9 25-35v-115H4c-2-14 14-10 21-15l18-38h11v38h38v15H54v112" id="aD"/><path fill="#de5f85" d="M75-106v92l39 5v9H13v-9l28-5v-208l-31-4v-10h177v57h-11l-6-38c-28-4-63-3-95-3v98h69l5-28h11v73h-11l-5-29H75" id="aE"/><path fill="#de5f85" d="M90-170c52 0 76 32 76 87 0 54-24 87-77 87-51 0-75-34-75-87 0-54 24-87 76-87zM89-10c39 0 46-35 46-73 0-39-7-73-46-73-39 1-44 34-44 73s6 72 44 73" id="aF"/><path fill="#de5f85" d="M57-145c16-10 35-24 60-25v45c-19 1-8-30-40-17l-20 6v124l29 4v8H7v-8l21-4v-141c-8-3-24 2-21-12h48" id="aG"/><path fill="#de5f85" d="M55 0v-9l38-5v-207c-22 1-53 0-70 4l-5 37H7v-56h207v56h-12l-5-37-70-3v206l37 5v9H55" id="aH"/><path fill="#de5f85" d="M60-80l68-73c-7-3-20 0-17-12h58c3 13-13 9-20 12l-47 48 60 93c7 3 21-1 18 12h-68c-3-12 9-9 15-12L82-83 60-60v48c7 3 21-1 18 12H10v-8l21-4v-226l-24-4v-8h53v170" id="aI"/><path fill="#de5f85" d="M84-170c49 0 66 33 63 87H46c-8 60 38 80 95 63v10C128-2 108 4 88 4 34 4 14-29 14-84c-1-54 22-86 70-86zm33 73c12-57-57-82-69-24-1 7-2 15-2 24h71" id="aJ"/><path fill="#de5f85" d="M125-118c4-37-41-34-68-26v132l23 4v8H8C5-13 21-9 28-12v-141c-7-3-23 1-20-12h47l2 13c31-23 98-29 98 31v109c7 3 23-1 20 12h-72v-8l22-4v-106" id="aK"/><path fill="#de5f85" d="M108-235c-52 28-62 95-58 178 3 56 21 97 58 119v15C7 49-17-153 67-223c12-10 25-19 41-27v15" id="aL"/><path fill="#de5f85" d="M12-250C113-222 137-19 52 49 40 59 28 69 12 77V62C56 37 70-16 70-87c0-70-13-123-58-148v-15" id="aM"/><g id="h"><use transform="matrix(0.09259259259259256,0,0,0.09259259259259256,0,0)" xlink:href="#aw"/><use transform="matrix(0.09259259259259256,0,0,0.09259259259259256,12.962962962962958,0)" xlink:href="#ax"/><use transform="matrix(0.09259259259259256,0,0,0.09259259259259256,36.94444444444443,0)" xlink:href="#ay"/><use transform="matrix(0.09259259259259256,0,0,0.09259259259259256,51.666666666666636,0)" xlink:href="#az"/><use transform="matrix(0.09259259259259256,0,0,0.09259259259259256,68.3333333333333,0)" xlink:href="#aA"/><use transform="matrix(0.09259259259259256,0,0,0.09259259259259256,88.61111111111107,0)" xlink:href="#aB"/><use transform="matrix(0.09259259259259256,0,0,0.09259259259259256,105.27777777777771,0)" xlink:href="#ay"/><use transform="matrix(0.09259259259259256,0,0,0.09259259259259256,119.99999999999994,0)" xlink:href="#aC"/><use transform="matrix(0.09259259259259256,0,0,0.09259259259259256,134.72222222222217,0)" xlink:href="#aD"/><use transform="matrix(0.09259259259259256,0,0,0.09259259259259256,143.98148148148144,0)" xlink:href="#aE"/><use transform="matrix(0.09259259259259256,0,0,0.09259259259259256,162.49999999999994,0)" xlink:href="#aF"/><use transform="matrix(0.09259259259259256,0,0,0.09259259259259256,179.1666666666666,0)" xlink:href="#aG"/><use transform="matrix(0.09259259259259256,0,0,0.09259259259259256,190.1851851851851,0)" xlink:href="#aH"/><use transform="matrix(0.09259259259259256,0,0,0.09259259259259256,208.14814814814807,0)" xlink:href="#aF"/><use transform="matrix(0.09259259259259256,0,0,0.09259259259259256,224.81481481481472,0)" xlink:href="#aI"/><use transform="matrix(0.09259259259259256,0,0,0.09259259259259256,241.4814814814814,0)" xlink:href="#aJ"/><use transform="matrix(0.09259259259259256,0,0,0.09259259259259256,256.2037037037036,0)" xlink:href="#aK"/><use transform="matrix(0.09259259259259256,0,0,0.09259259259259256,272.87037037037027,0)" xlink:href="#aL"/><use transform="matrix(0.09259259259259256,0,0,0.09259259259259256,283.8888888888888,0)" xlink:href="#aM"/></g><path fill="#333" d="M52-115c0 90 69 126 140 93v-67l-30-5v-9h87v9l-23 5v77c-27 8-56 16-90 16C59 2 15-37 15-115c-1-82 41-123 122-123 31 0 59 4 83 10v51h-12l-5-29c-15-12-38-18-65-18-66-1-86 42-86 109" id="aN"/><path fill="#333" d="M90-170c52 0 76 32 76 87 0 54-24 87-77 87-51 0-75-34-75-87 0-54 24-87 76-87zM89-10c39 0 46-35 46-73 0-39-7-73-46-73-39 1-44 34-44 73s6 72 44 73" id="aO"/><path fill="#333" d="M13-81c0-71 46-101 114-85l-1-72-28-4v-8h57v238c8 3 24-2 21 12h-47l-2-12C80 23 13-1 13-81zm77-74c-37 1-44 33-45 74 0 38 9 66 45 66 14 0 27-3 36-7v-130c-10-1-24-3-36-3" id="aP"/><g id="i"><use transform="matrix(0.0925925925925926,0,0,0.0925925925925926,0,0)" xlink:href="#aN"/><use transform="matrix(0.0925925925925926,0,0,0.0925925925925926,23.981481481481485,0)" xlink:href="#E"/><use transform="matrix(0.0925925925925926,0,0,0.0925925925925926,38.70370370370371,0)" xlink:href="#aO"/><use transform="matrix(0.0925925925925926,0,0,0.0925925925925926,55.37037037037039,0)" xlink:href="#aP"/><use transform="matrix(0.0925925925925926,0,0,0.0925925925925926,72.03703703703705,0)" xlink:href="#E"/></g><path fill="#333" d="M45-84c0 64 52 80 104 63 1 25-30 25-55 25-56 0-80-32-80-88 0-76 62-98 131-80v46h-10c-5-15-4-31-23-35-47-10-67 21-67 69" id="aQ"/><path fill="#333" d="M126-119c3-38-42-31-69-25v132l23 4v8H7v-8l21-4v-226l-24-4v-8h53l-1 98c31-22 99-31 99 31v109c7 3 23-1 20 12h-71v-8l22-4v-107" id="aR"/><path fill="#333" d="M60-80l68-73c-7-3-20 0-17-12h58c3 13-13 9-20 12l-47 48 60 93c7 3 21-1 18 12h-68c-3-12 9-9 15-12L82-83 60-60v48c7 3 21-1 18 12H10v-8l21-4v-226l-24-4v-8h53v170" id="aS"/><path fill="#333" d="M32-163c41-10 102-14 102 39v112c8 3 24-2 21 12h-45l-4-17C83 13 3 13 13-46c-2-50 45-50 92-51 4-36-5-70-42-56-6 2-12 4-16 6-4 7 0 23-15 20v-36zM42-47c0 41 41 33 63 22v-59c-34 1-63-1-63 37" id="aT"/><path fill="#333" d="M108-235c-52 28-62 95-58 178 3 56 21 97 58 119v15C7 49-17-153 67-223c12-10 25-19 41-27v15" id="aU"/><path fill="#333" d="M12-250C113-222 137-19 52 49 40 59 28 69 12 77V62C56 37 70-16 70-87c0-70-13-123-58-148v-15" id="aV"/><g id="j"><use transform="matrix(0.09259259259259256,0,0,0.09259259259259256,0,0)" xlink:href="#aQ"/><use transform="matrix(0.09259259259259256,0,0,0.09259259259259256,14.722222222222218,0)" xlink:href="#aR"/><use transform="matrix(0.09259259259259256,0,0,0.09259259259259256,31.38888888888888,0)" xlink:href="#E"/><use transform="matrix(0.09259259259259256,0,0,0.09259259259259256,46.1111111111111,0)" xlink:href="#aQ"/><use transform="matrix(0.09259259259259256,0,0,0.09259259259259256,60.833333333333314,0)" xlink:href="#aS"/><use transform="matrix(0.09259259259259256,0,0,0.09259259259259256,77.49999999999997,0)" xlink:href="#aN"/><use transform="matrix(0.09259259259259256,0,0,0.09259259259259256,101.48148148148144,0)" xlink:href="#aT"/><use transform="matrix(0.09259259259259256,0,0,0.09259259259259256,116.20370370370367,0)" xlink:href="#D"/><use transform="matrix(0.09259259259259256,0,0,0.09259259259259256,129.1666666666666,0)" xlink:href="#aU"/><use transform="matrix(0.09259259259259256,0,0,0.09259259259259256,140.1851851851851,0)" xlink:href="#aV"/></g><path fill="#333" d="M125-118c4-37-41-34-68-26v132l23 4v8H8C5-13 21-9 28-12v-141c-7-3-23 1-20-12h47l2 13c31-23 98-29 98 31v109c7 3 23-1 20 12h-72v-8l22-4v-106" id="aW"/><path fill="#333" d="M65-12l28 4v8H7v-8l28-4v-226l-28-4v-8h58v238" id="aX"/><path fill="#333" d="M161-154L85 37C75 66 49 86 8 75V39c18-2 6 24 29 21 30-4 38-32 47-58L21-153c-7-3-20 0-17-12h77v8l-26 4 45 116 43-116-26-4v-8h62v8" id="aY"/><path fill="#333" d="M199-173c-1 36-21 56-49 65l64 94 26 5v9h-57l-66-103H75v89l35 5v9H13v-9l28-5v-208l-31-4v-10c80 4 190-20 189 63zM75-119c50 2 89-1 89-51 0-49-39-52-89-50v101" id="aZ"/><g id="k"><use transform="matrix(0.09259259259259256,0,0,0.09259259259259256,0,0)" xlink:href="#aO"/><use transform="matrix(0.09259259259259256,0,0,0.09259259259259256,16.66666666666666,0)" xlink:href="#aW"/><use transform="matrix(0.09259259259259256,0,0,0.09259259259259256,33.33333333333332,0)" xlink:href="#aX"/><use transform="matrix(0.09259259259259256,0,0,0.09259259259259256,42.59259259259258,0)" xlink:href="#aY"/><use transform="matrix(0.09259259259259256,0,0,0.09259259259259256,59.25925925925924,0)" xlink:href="#aZ"/><use transform="matrix(0.09259259259259256,0,0,0.09259259259259256,81.48148148148145,0)" xlink:href="#E"/><use transform="matrix(0.09259259259259256,0,0,0.09259259259259256,96.20370370370367,0)" xlink:href="#aX"/><use transform="matrix(0.09259259259259256,0,0,0.09259259259259256,105.46296296296292,0)" xlink:href="#aT"/><use transform="matrix(0.09259259259259256,0,0,0.09259259259259256,120.18518518518515,0)" xlink:href="#aY"/><use transform="matrix(0.09259259259259256,0,0,0.09259259259259256,136.8518518518518,0)" xlink:href="#E"/><use transform="matrix(0.09259259259259256,0,0,0.09259259259259256,151.57407407407402,0)" xlink:href="#F"/><use transform="matrix(0.09259259259259256,0,0,0.09259259259259256,162.59259259259252,0)" xlink:href="#aU"/><use transform="matrix(0.09259259259259256,0,0,0.09259259259259256,173.61111111111103,0)" xlink:href="#aV"/></g><path fill="#333" d="M111-226l-36 4v207c33-1 73 2 101-4l11-49h11l-3 68H10v-9l31-5v-208l-31-4v-10h101v10" id="ba"/><path fill="#333" d="M47-200c-23 0-25-39 0-38 13 0 18 7 20 19-1 11-8 19-20 19zM65-12l28 4v8H8v-8l28-4v-141l-24-4v-8h53v153" id="bb"/><path fill="#333" d="M13-82c-2-68 46-101 114-84 8-3 15-8 28-7V64l18 4v9h-70v-9l23-4c1-25-2-53 2-75-11 8-27 15-47 15-49-1-66-35-68-86zm113-70c-53-13-86 12-81 70-6 54 34 80 81 61v-131" id="bc"/><path fill="#333" d="M124-13C89 8 26 15 26-45v-108c-8-3-24 2-21-12h50v118c-3 37 42 32 69 25v-131l-25-4v-8h54v153c8 3 24-2 21 12h-48" id="bd"/><path fill="#333" d="M54-38c-1 25 24 26 44 20v12C71 10 25 9 25-35v-115H4c-2-14 14-10 21-15l18-38h11v38h38v15H54v112" id="be"/><g id="l"><use transform="matrix(0.09259259259259256,0,0,0.09259259259259256,0,0)" xlink:href="#aT"/><use transform="matrix(0.09259259259259256,0,0,0.09259259259259256,14.722222222222218,0)" xlink:href="#aP"/><use transform="matrix(0.09259259259259256,0,0,0.09259259259259256,31.38888888888888,0)" xlink:href="#aP"/><use transform="matrix(0.09259259259259256,0,0,0.09259259259259256,48.055555555555536,0)" xlink:href="#ba"/><use transform="matrix(0.09259259259259256,0,0,0.09259259259259256,68.33333333333331,0)" xlink:href="#bb"/><use transform="matrix(0.09259259259259256,0,0,0.09259259259259256,77.59259259259257,0)" xlink:href="#bc"/><use transform="matrix(0.09259259259259256,0,0,0.09259259259259256,94.25925925925922,0)" xlink:href="#bd"/><use transform="matrix(0.09259259259259256,0,0,0.09259259259259256,110.92592592592588,0)" xlink:href="#bb"/><use transform="matrix(0.09259259259259256,0,0,0.09259259259259256,120.18518518518515,0)" xlink:href="#aP"/><use transform="matrix(0.09259259259259256,0,0,0.09259259259259256,136.8518518518518,0)" xlink:href="#bb"/><use transform="matrix(0.09259259259259256,0,0,0.09259259259259256,146.11111111111106,0)" xlink:href="#be"/><use transform="matrix(0.09259259259259256,0,0,0.09259259259259256,155.37037037037032,0)" xlink:href="#aY"/><use transform="matrix(0.09259259259259256,0,0,0.09259259259259256,172.03703703703698,0)" xlink:href="#aU"/><use transform="matrix(0.09259259259259256,0,0,0.09259259259259256,183.0555555555555,0)" xlink:href="#aV"/></g><path fill="#333" d="M240-154L185 4h-14l-41-109L90 4H77L20-153c-7-3-23 1-20-12h79v8l-27 4L91-41l40-108h14l40 109 38-113-28-4v-8h63v8" id="bf"/><path fill="#333" d="M166-85c3 67-44 102-111 85l1 64 29 4v9H6v-9l21-4v-217c-7-3-22 1-19-12h46l1 9c11-8 26-14 45-14 47 2 64 36 66 85zM56-13c53 14 83-14 78-72 7-53-33-79-78-60v132" id="bg"/><path fill="#333" d="M10-9l31-5v-208l-31-4v-10h177v57h-11l-6-38c-28-4-63-3-95-3v92h63l6-28h11v73h-11l-6-29H75v96l105-3 10-43h12l-3 62H10v-9" id="bh"/><path fill="#333" d="M156-12c7 3 23-1 20 12h-75v-8l22-4-38-58-45 58 23 4v8H3v-8l19-3 55-71-48-71c-7-3-23 1-20-12h75v8l-22 4 32 48 37-48-23-4v-8h59v8l-19 3-46 60" id="bi"/><path fill="#333" d="M75-106v92l39 5v9H13v-9l28-5v-208l-31-4v-10h177v57h-11l-6-38c-28-4-63-3-95-3v98h69l5-28h11v73h-11l-5-29H75" id="bj"/><path fill="#333" d="M55 0v-9l38-5v-207c-22 1-53 0-70 4l-5 37H7v-56h207v56h-12l-5-37-70-3v206l37 5v9H55" id="bk"/><g id="m"><use transform="matrix(0.09259259259259256,0,0,0.09259259259259256,0,0)" xlink:href="#D"/><use transform="matrix(0.09259259259259256,0,0,0.09259259259259256,12.962962962962958,0)" xlink:href="#bf"/><use transform="matrix(0.09259259259259256,0,0,0.09259259259259256,36.94444444444443,0)" xlink:href="#aT"/><use transform="matrix(0.09259259259259256,0,0,0.09259259259259256,51.666666666666636,0)" xlink:href="#bg"/><use transform="matrix(0.09259259259259256,0,0,0.09259259259259256,68.3333333333333,0)" xlink:href="#bh"/><use transform="matrix(0.09259259259259256,0,0,0.09259259259259256,88.61111111111107,0)" xlink:href="#bi"/><use transform="matrix(0.09259259259259256,0,0,0.09259259259259256,105.27777777777771,0)" xlink:href="#aT"/><use transform="matrix(0.09259259259259256,0,0,0.09259259259259256,119.99999999999994,0)" xlink:href="#aQ"/><use transform="matrix(0.09259259259259256,0,0,0.09259259259259256,134.72222222222217,0)" xlink:href="#be"/><use transform="matrix(0.09259259259259256,0,0,0.09259259259259256,143.98148148148144,0)" xlink:href="#bj"/><use transform="matrix(0.09259259259259256,0,0,0.09259259259259256,162.49999999999994,0)" xlink:href="#aO"/><use transform="matrix(0.09259259259259256,0,0,0.09259259259259256,179.1666666666666,0)" xlink:href="#F"/><use transform="matrix(0.09259259259259256,0,0,0.09259259259259256,190.1851851851851,0)" xlink:href="#bk"/><use transform="matrix(0.09259259259259256,0,0,0.09259259259259256,208.14814814814807,0)" xlink:href="#aO"/><use transform="matrix(0.09259259259259256,0,0,0.09259259259259256,224.81481481481472,0)" xlink:href="#aS"/><use transform="matrix(0.09259259259259256,0,0,0.09259259259259256,241.4814814814814,0)" xlink:href="#E"/><use transform="matrix(0.09259259259259256,0,0,0.09259259259259256,256.2037037037036,0)" xlink:href="#aW"/><use transform="matrix(0.09259259259259256,0,0,0.09259259259259256,272.87037037037027,0)" xlink:href="#aU"/><use transform="matrix(0.09259259259259256,0,0,0.09259259259259256,283.8888888888888,0)" xlink:href="#aV"/></g><path fill="#19967d" d="M41-130c7 48 86 23 86 84 0 56-69 57-112 41v-40c20 0 9 29 31 31 35 19 77-26 41-50-27-18-72-13-72-59 0-50 58-52 100-41v36c-19 1-8-25-28-25-21-7-50-1-46 23" id="bl"/><path fill="#19967d" d="M240-154L185 4h-14l-41-109L90 4H77L20-153c-7-3-23 1-20-12h79v8l-27 4L91-41l40-108h14l40 109 38-113-28-4v-8h63v8" id="bm"/><path fill="#19967d" d="M32-163c41-10 102-14 102 39v112c8 3 24-2 21 12h-45l-4-17C83 13 3 13 13-46c-2-50 45-50 92-51 4-36-5-70-42-56-6 2-12 4-16 6-4 7 0 23-15 20v-36zM42-47c0 41 41 33 63 22v-59c-34 1-63-1-63 37" id="bn"/><path fill="#19967d" d="M166-85c3 67-44 102-111 85l1 64 29 4v9H6v-9l21-4v-217c-7-3-22 1-19-12h46l1 9c11-8 26-14 45-14 47 2 64 36 66 85zM56-13c53 14 83-14 78-72 7-53-33-79-78-60v132" id="bo"/><path fill="#19967d" d="M55 0v-9l38-5v-207c-22 1-53 0-70 4l-5 37H7v-56h207v56h-12l-5-37-70-3v206l37 5v9H55" id="bp"/><path fill="#19967d" d="M90-170c52 0 76 32 76 87 0 54-24 87-77 87-51 0-75-34-75-87 0-54 24-87 76-87zM89-10c39 0 46-35 46-73 0-39-7-73-46-73-39 1-44 34-44 73s6 72 44 73" id="bq"/><path fill="#19967d" d="M60-80l68-73c-7-3-20 0-17-12h58c3 13-13 9-20 12l-47 48 60 93c7 3 21-1 18 12h-68c-3-12 9-9 15-12L82-83 60-60v48c7 3 21-1 18 12H10v-8l21-4v-226l-24-4v-8h53v170" id="br"/><path fill="#19967d" d="M84-170c49 0 66 33 63 87H46c-8 60 38 80 95 63v10C128-2 108 4 88 4 34 4 14-29 14-84c-1-54 22-86 70-86zm33 73c12-57-57-82-69-24-1 7-2 15-2 24h71" id="bs"/><path fill="#19967d" d="M125-118c4-37-41-34-68-26v132l23 4v8H8C5-13 21-9 28-12v-141c-7-3-23 1-20-12h47l2 13c31-23 98-29 98 31v109c7 3 23-1 20 12h-72v-8l22-4v-106" id="bt"/><path fill="#19967d" d="M75-106v92l39 5v9H13v-9l28-5v-208l-31-4v-10h177v57h-11l-6-38c-28-4-63-3-95-3v98h69l5-28h11v73h-11l-5-29H75" id="bu"/><path fill="#19967d" d="M57-145c16-10 35-24 60-25v45c-19 1-8-30-40-17l-20 6v124l29 4v8H7v-8l21-4v-141c-8-3-24 2-21-12h48" id="bv"/><path fill="#19967d" d="M10-9l31-5v-208l-31-4v-10h177v57h-11l-6-38c-28-4-63-3-95-3v92h63l6-28h11v73h-11l-6-29H75v96l105-3 10-43h12l-3 62H10v-9" id="bw"/><path fill="#19967d" d="M156-12c7 3 23-1 20 12h-75v-8l22-4-38-58-45 58 23 4v8H3v-8l19-3 55-71-48-71c-7-3-23 1-20-12h75v8l-22 4 32 48 37-48-23-4v-8h59v8l-19 3-46 60" id="bx"/><path fill="#19967d" d="M45-84c0 64 52 80 104 63 1 25-30 25-55 25-56 0-80-32-80-88 0-76 62-98 131-80v46h-10c-5-15-4-31-23-35-47-10-67 21-67 69" id="by"/><path fill="#19967d" d="M54-38c-1 25 24 26 44 20v12C71 10 25 9 25-35v-115H4c-2-14 14-10 21-15l18-38h11v38h38v15H54v112" id="bz"/><path fill="#19967d" d="M108-235c-52 28-62 95-58 178 3 56 21 97 58 119v15C7 49-17-153 67-223c12-10 25-19 41-27v15" id="bA"/><path fill="#19967d" d="M12-250C113-222 137-19 52 49 40 59 28 69 12 77V62C56 37 70-16 70-87c0-70-13-123-58-148v-15" id="bB"/><g id="n"><use transform="matrix(0.09259259259259256,0,0,0.09259259259259256,0,0)" xlink:href="#bl"/><use transform="matrix(0.09259259259259256,0,0,0.09259259259259256,12.962962962962958,0)" xlink:href="#bm"/><use transform="matrix(0.09259259259259256,0,0,0.09259259259259256,36.94444444444443,0)" xlink:href="#bn"/><use transform="matrix(0.09259259259259256,0,0,0.09259259259259256,51.666666666666636,0)" xlink:href="#bo"/><use transform="matrix(0.09259259259259256,0,0,0.09259259259259256,68.3333333333333,0)" xlink:href="#bp"/><use transform="matrix(0.09259259259259256,0,0,0.09259259259259256,86.29629629629626,0)" xlink:href="#bq"/><use transform="matrix(0.09259259259259256,0,0,0.09259259259259256,102.96296296296293,0)" xlink:href="#br"/><use transform="matrix(0.09259259259259256,0,0,0.09259259259259256,119.62962962962956,0)" xlink:href="#bs"/><use transform="matrix(0.09259259259259256,0,0,0.09259259259259256,134.3518518518518,0)" xlink:href="#bt"/><use transform="matrix(0.09259259259259256,0,0,0.09259259259259256,151.01851851851845,0)" xlink:href="#bu"/><use transform="matrix(0.09259259259259256,0,0,0.09259259259259256,169.53703703703695,0)" xlink:href="#bq"/><use transform="matrix(0.09259259259259256,0,0,0.09259259259259256,186.2037037037036,0)" xlink:href="#bv"/><use transform="matrix(0.09259259259259256,0,0,0.09259259259259256,197.22222222222211,0)" xlink:href="#bw"/><use transform="matrix(0.09259259259259256,0,0,0.09259259259259256,217.4999999999999,0)" xlink:href="#bx"/><use transform="matrix(0.09259259259259256,0,0,0.09259259259259256,234.16666666666654,0)" xlink:href="#bn"/><use transform="matrix(0.09259259259259256,0,0,0.09259259259259256,248.88888888888877,0)" xlink:href="#by"/><use transform="matrix(0.09259259259259256,0,0,0.09259259259259256,263.611111111111,0)" xlink:href="#bz"/><use transform="matrix(0.09259259259259256,0,0,0.09259259259259256,272.8703703703702,0)" xlink:href="#bA"/><use transform="matrix(0.09259259259259256,0,0,0.09259259259259256,283.88888888888874,0)" xlink:href="#bB"/></g><g id="o"><use transform="matrix(0.09259259259259256,0,0,0.09259259259259256,0,0)" xlink:href="#D"/><use transform="matrix(0.09259259259259256,0,0,0.09259259259259256,12.962962962962958,0)" xlink:href="#bf"/><use transform="matrix(0.09259259259259256,0,0,0.09259259259259256,36.94444444444443,0)" xlink:href="#aT"/><use transform="matrix(0.09259259259259256,0,0,0.09259259259259256,51.666666666666636,0)" xlink:href="#bg"/><use transform="matrix(0.09259259259259256,0,0,0.09259259259259256,68.3333333333333,0)" xlink:href="#bk"/><use transform="matrix(0.09259259259259256,0,0,0.09259259259259256,86.29629629629626,0)" xlink:href="#aO"/><use transform="matrix(0.09259259259259256,0,0,0.09259259259259256,102.96296296296293,0)" xlink:href="#aS"/><use transform="matrix(0.09259259259259256,0,0,0.09259259259259256,119.62962962962956,0)" xlink:href="#E"/><use transform="matrix(0.09259259259259256,0,0,0.09259259259259256,134.3518518518518,0)" xlink:href="#aW"/><use transform="matrix(0.09259259259259256,0,0,0.09259259259259256,151.01851851851845,0)" xlink:href="#bj"/><use transform="matrix(0.09259259259259256,0,0,0.09259259259259256,169.53703703703695,0)" xlink:href="#aO"/><use transform="matrix(0.09259259259259256,0,0,0.09259259259259256,186.2037037037036,0)" xlink:href="#F"/><use transform="matrix(0.09259259259259256,0,0,0.09259259259259256,197.22222222222211,0)" xlink:href="#bh"/><use transform="matrix(0.09259259259259256,0,0,0.09259259259259256,217.4999999999999,0)" xlink:href="#bi"/><use transform="matrix(0.09259259259259256,0,0,0.09259259259259256,234.16666666666654,0)" xlink:href="#aT"/><use transform="matrix(0.09259259259259256,0,0,0.09259259259259256,248.88888888888877,0)" xlink:href="#aQ"/><use transform="matrix(0.09259259259259256,0,0,0.09259259259259256,263.611111111111,0)" xlink:href="#be"/><use transform="matrix(0.09259259259259256,0,0,0.09259259259259256,272.8703703703702,0)" xlink:href="#aU"/><use transform="matrix(0.09259259259259256,0,0,0.09259259259259256,283.88888888888874,0)" xlink:href="#aV"/></g><path d="M54-38c-1 25 24 26 44 20v12C71 10 25 9 25-35v-115H4c-2-14 14-10 21-15l18-38h11v38h38v15H54v112" id="bC"/><path d="M57-145c16-10 35-24 60-25v45c-19 1-8-30-40-17l-20 6v124l29 4v8H7v-8l21-4v-141c-8-3-24 2-21-12h48" id="bD"/><path d="M32-163c41-10 102-14 102 39v112c8 3 24-2 21 12h-45l-4-17C83 13 3 13 13-46c-2-50 45-50 92-51 4-36-5-70-42-56-6 2-12 4-16 6-4 7 0 23-15 20v-36zM42-47c0 41 41 33 63 22v-59c-34 1-63-1-63 37" id="bE"/><path d="M125-118c4-37-41-34-68-26v132l23 4v8H8C5-13 21-9 28-12v-141c-7-3-23 1-20-12h47l2 13c31-23 98-29 98 31v109c7 3 23-1 20 12h-72v-8l22-4v-106" id="bF"/><path d="M41-130c7 48 86 23 86 84 0 56-69 57-112 41v-40c20 0 9 29 31 31 35 19 77-26 41-50-27-18-72-13-72-59 0-50 58-52 100-41v36c-19 1-8-25-28-25-21-7-50-1-46 23" id="bG"/><path d="M103-236c-39-15-35 32-34 71h44v15H69v136l35 6v8H15v-8l25-6v-136H11v-9l29-7c-6-59 23-100 80-84v36c-15 2-12-14-17-22" id="bH"/><path d="M84-170c49 0 66 33 63 87H46c-8 60 38 80 95 63v10C128-2 108 4 88 4 34 4 14-29 14-84c-1-54 22-86 70-86zm33 73c12-57-57-82-69-24-1 7-2 15-2 24h71" id="bI"/><path d="M75-106v92l39 5v9H13v-9l28-5v-208l-31-4v-10h177v57h-11l-6-38c-28-4-63-3-95-3v98h69l5-28h11v73h-11l-5-29H75" id="bJ"/><path d="M90-170c52 0 76 32 76 87 0 54-24 87-77 87-51 0-75-34-75-87 0-54 24-87 76-87zM89-10c39 0 46-35 46-73 0-39-7-73-46-73-39 1-44 34-44 73s6 72 44 73" id="bK"/><path d="M126-118c4-37-42-32-68-25v131l24 4v8H8C5-13 21-9 28-12v-141c-7-3-23 1-20-12h48l1 13c22-15 77-30 92 2 32-22 104-36 104 29v109c8 3 24-2 21 12h-75v-8l25-4v-106c3-39-45-31-72-24 7 37 1 88 3 130l25 4v8h-78v-8l24-4v-106" id="bL"/><path d="M108-235c-52 28-62 95-58 178 3 56 21 97 58 119v15C7 49-17-153 67-223c12-10 25-19 41-27v15" id="bM"/><path d="M12-250C113-222 137-19 52 49 40 59 28 69 12 77V62C56 37 70-16 70-87c0-70-13-123-58-148v-15" id="bN"/><g id="p"><use transform="matrix(0.09259259259259256,0,0,0.09259259259259256,0,0)" xlink:href="#bC"/><use transform="matrix(0.09259259259259256,0,0,0.09259259259259256,9.259259259259256,0)" xlink:href="#bD"/><use transform="matrix(0.09259259259259256,0,0,0.09259259259259256,20.27777777777777,0)" xlink:href="#bE"/><use transform="matrix(0.09259259259259256,0,0,0.09259259259259256,34.999999999999986,0)" xlink:href="#bF"/><use transform="matrix(0.09259259259259256,0,0,0.09259259259259256,51.666666666666636,0)" xlink:href="#bG"/><use transform="matrix(0.09259259259259256,0,0,0.09259259259259256,64.6296296296296,0)" xlink:href="#bH"/><use transform="matrix(0.09259259259259256,0,0,0.09259259259259256,75.64814814814812,0)" xlink:href="#bI"/><use transform="matrix(0.09259259259259256,0,0,0.09259259259259256,90.37037037037034,0)" xlink:href="#bD"/><use transform="matrix(0.09259259259259256,0,0,0.09259259259259256,101.38888888888886,0)" xlink:href="#bJ"/><use transform="matrix(0.09259259259259256,0,0,0.09259259259259256,119.90740740740736,0)" xlink:href="#bD"/><use transform="matrix(0.09259259259259256,0,0,0.09259259259259256,130.92592592592587,0)" xlink:href="#bK"/><use transform="matrix(0.09259259259259256,0,0,0.09259259259259256,147.59259259259252,0)" xlink:href="#bL"/><use transform="matrix(0.09259259259259256,0,0,0.09259259259259256,173.51851851851845,0)" xlink:href="#bM"/><use transform="matrix(0.09259259259259256,0,0,0.09259259259259256,184.53703703703695,0)" xlink:href="#bN"/></g><path d="M47-200c-23 0-25-39 0-38 13 0 18 7 20 19-1 11-8 19-20 19zM65-12l28 4v8H8v-8l28-4v-141l-24-4v-8h53v153" id="bO"/><path d="M65-12l28 4v8H7v-8l28-4v-226l-28-4v-8h58v238" id="bP"/><path d="M55 0v-9l38-5v-207c-22 1-53 0-70 4l-5 37H7v-56h207v56h-12l-5-37-70-3v206l37 5v9H55" id="bQ"/><g id="q"><use transform="matrix(0.09259259259259256,0,0,0.09259259259259256,0,0)" xlink:href="#bO"/><use transform="matrix(0.09259259259259256,0,0,0.09259259259259256,9.259259259259256,0)" xlink:href="#bF"/><use transform="matrix(0.09259259259259256,0,0,0.09259259259259256,25.925925925925917,0)" xlink:href="#bC"/><use transform="matrix(0.09259259259259256,0,0,0.09259259259259256,35.185185185185176,0)" xlink:href="#bI"/><use transform="matrix(0.09259259259259256,0,0,0.09259259259259256,49.90740740740739,0)" xlink:href="#bD"/><use transform="matrix(0.09259259259259256,0,0,0.09259259259259256,60.92592592592592,0)" xlink:href="#bF"/><use transform="matrix(0.09259259259259256,0,0,0.09259259259259256,77.59259259259257,0)" xlink:href="#bE"/><use transform="matrix(0.09259259259259256,0,0,0.09259259259259256,92.31481481481478,0)" xlink:href="#bP"/><use transform="matrix(0.09259259259259256,0,0,0.09259259259259256,101.57407407407403,0)" xlink:href="#bQ"/><use transform="matrix(0.09259259259259256,0,0,0.09259259259259256,120.64814814814811,0)" xlink:href="#bD"/><use transform="matrix(0.09259259259259256,0,0,0.09259259259259256,131.6666666666666,0)" xlink:href="#bE"/><use transform="matrix(0.09259259259259256,0,0,0.09259259259259256,146.38888888888883,0)" xlink:href="#bF"/><use transform="matrix(0.09259259259259256,0,0,0.09259259259259256,163.0555555555555,0)" xlink:href="#bG"/><use transform="matrix(0.09259259259259256,0,0,0.09259259259259256,176.01851851851845,0)" xlink:href="#bH"/><use transform="matrix(0.09259259259259256,0,0,0.09259259259259256,187.03703703703695,0)" xlink:href="#bI"/><use transform="matrix(0.09259259259259256,0,0,0.09259259259259256,201.75925925925918,0)" xlink:href="#bD"/><use transform="matrix(0.09259259259259256,0,0,0.09259259259259256,212.77777777777771,0)" xlink:href="#bJ"/><use transform="matrix(0.09259259259259256,0,0,0.09259259259259256,231.29629629629616,0)" xlink:href="#bD"/><use transform="matrix(0.09259259259259256,0,0,0.09259259259259256,242.3148148148147,0)" xlink:href="#bK"/><use transform="matrix(0.09259259259259256,0,0,0.09259259259259256,258.98148148148135,0)" xlink:href="#bL"/><use transform="matrix(0.09259259259259256,0,0,0.09259259259259256,284.9074074074073,0)" xlink:href="#bM"/><use transform="matrix(0.09259259259259256,0,0,0.09259259259259256,295.9259259259258,0)" xlink:href="#bN"/></g><path fill="#333" d="M6-13l30-5v-200l-30-5v-13h201v60h-16l-6-38-93-2v86h61l6-26h16v73h-16l-6-27H92v91l104-3 10-44h16l-4 66H6v-13" id="bR"/><g id="r"><use transform="matrix(0.12345679012345678,0,0,0.12345679012345678,0,0)" xlink:href="#bR"/><use transform="matrix(0.12345679012345678,0,0,0.12345679012345678,29.629629629629626,0)" xlink:href="#R"/><use transform="matrix(0.12345679012345678,0,0,0.12345679012345678,61.60493827160494,0)" xlink:href="#G"/><use transform="matrix(0.12345679012345678,0,0,0.12345679012345678,93.58024691358024,0)" xlink:href="#U"/><use transform="matrix(0.12345679012345678,0,0,0.12345679012345678,115.80246913580245,0)" xlink:href="#T"/></g><path d="M-3 46V28h186v18H-3" id="bS"/><g id="s"><use transform="matrix(0.09259259259259256,0,0,0.09259259259259256,0,0)" xlink:href="#bS"/><use transform="matrix(0.09259259259259256,0,0,0.09259259259259256,16.66666666666666,0)" xlink:href="#bC"/><use transform="matrix(0.09259259259259256,0,0,0.09259259259259256,25.925925925925917,0)" xlink:href="#bD"/><use transform="matrix(0.09259259259259256,0,0,0.09259259259259256,36.94444444444443,0)" xlink:href="#bE"/><use transform="matrix(0.09259259259259256,0,0,0.09259259259259256,51.666666666666636,0)" xlink:href="#bF"/><use transform="matrix(0.09259259259259256,0,0,0.09259259259259256,68.3333333333333,0)" xlink:href="#bG"/><use transform="matrix(0.09259259259259256,0,0,0.09259259259259256,81.29629629629626,0)" xlink:href="#bH"/><use transform="matrix(0.09259259259259256,0,0,0.09259259259259256,92.31481481481478,0)" xlink:href="#bI"/><use transform="matrix(0.09259259259259256,0,0,0.09259259259259256,107.037037037037,0)" xlink:href="#bD"/><use transform="matrix(0.09259259259259256,0,0,0.09259259259259256,118.05555555555551,0)" xlink:href="#bM"/><use transform="matrix(0.09259259259259256,0,0,0.09259259259259256,129.07407407407402,0)" xlink:href="#bN"/></g><g id="t"><use transform="matrix(0.09259259259259256,0,0,0.09259259259259256,0,0)" xlink:href="#bS"/><use transform="matrix(0.09259259259259256,0,0,0.09259259259259256,16.66666666666666,0)" xlink:href="#bL"/><use transform="matrix(0.09259259259259256,0,0,0.09259259259259256,42.59259259259258,0)" xlink:href="#bO"/><use transform="matrix(0.09259259259259256,0,0,0.09259259259259256,51.85185185185183,0)" xlink:href="#bF"/><use transform="matrix(0.09259259259259256,0,0,0.09259259259259256,68.51851851851849,0)" xlink:href="#bC"/><use transform="matrix(0.09259259259259256,0,0,0.09259259259259256,77.77777777777774,0)" xlink:href="#bM"/><use transform="matrix(0.09259259259259256,0,0,0.09259259259259256,88.79629629629626,0)" xlink:href="#bN"/></g><path d="M53-14c58 12 82-15 82-73 0-52-35-77-82-58v131zM89 4C64 4 42-2 24-9v-229l-24-4v-8h53l-1 94c48-33 114-4 114 69 0 57-23 91-77 91" id="bT"/><path d="M124-13C89 8 26 15 26-45v-108c-8-3-24 2-21-12h50v118c-3 37 42 32 69 25v-131l-25-4v-8h54v153c8 3 24-2 21 12h-48" id="bU"/><g id="u"><use transform="matrix(0.09259259259259256,0,0,0.09259259259259256,0,0)" xlink:href="#bS"/><use transform="matrix(0.09259259259259256,0,0,0.09259259259259256,16.66666666666666,0)" xlink:href="#bT"/><use transform="matrix(0.09259259259259256,0,0,0.09259259259259256,33.33333333333332,0)" xlink:href="#bU"/><use transform="matrix(0.09259259259259256,0,0,0.09259259259259256,49.999999999999986,0)" xlink:href="#bD"/><use transform="matrix(0.09259259259259256,0,0,0.09259259259259256,61.018518518518505,0)" xlink:href="#bF"/><use transform="matrix(0.09259259259259256,0,0,0.09259259259259256,77.68518518518516,0)" xlink:href="#bM"/><use transform="matrix(0.09259259259259256,0,0,0.09259259259259256,88.70370370370368,0)" xlink:href="#bN"/></g><path d="M13-81c0-71 46-101 114-85l-1-72-28-4v-8h57v238c8 3 24-2 21 12h-47l-2-12C80 23 13-1 13-81zm77-74c-37 1-44 33-45 74 0 38 9 66 45 66 14 0 27-3 36-7v-130c-10-1-24-3-36-3" id="bV"/><path d="M166-85c3 67-44 102-111 85l1 64 29 4v9H6v-9l21-4v-217c-7-3-22 1-19-12h46l1 9c11-8 26-14 45-14 47 2 64 36 66 85zM56-13c53 14 83-14 78-72 7-53-33-79-78-60v132" id="bW"/><g id="v"><use transform="matrix(0.09259259259259256,0,0,0.09259259259259256,0,0)" xlink:href="#bV"/><use transform="matrix(0.09259259259259256,0,0,0.09259259259259256,16.66666666666666,0)" xlink:href="#bI"/><use transform="matrix(0.09259259259259256,0,0,0.09259259259259256,31.38888888888888,0)" xlink:href="#bW"/><use transform="matrix(0.09259259259259256,0,0,0.09259259259259256,48.055555555555536,0)" xlink:href="#bK"/><use transform="matrix(0.09259259259259256,0,0,0.09259259259259256,64.7222222222222,0)" xlink:href="#bG"/><use transform="matrix(0.09259259259259256,0,0,0.09259259259259256,77.68518518518516,0)" xlink:href="#bO"/><use transform="matrix(0.09259259259259256,0,0,0.09259259259259256,86.94444444444441,0)" xlink:href="#bC"/><use transform="matrix(0.09259259259259256,0,0,0.09259259259259256,96.20370370370367,0)" xlink:href="#bM"/><use transform="matrix(0.09259259259259256,0,0,0.09259259259259256,107.22222222222219,0)" xlink:href="#bN"/></g><path d="M240-154L185 4h-14l-41-109L90 4H77L20-153c-7-3-23 1-20-12h79v8l-27 4L91-41l40-108h14l40 109 38-113-28-4v-8h63v8" id="bX"/><path d="M126-119c3-38-42-31-69-25v132l23 4v8H7v-8l21-4v-226l-24-4v-8h53l-1 98c31-22 99-31 99 31v109c7 3 23-1 20 12h-71v-8l22-4v-107" id="bY"/><g id="w"><use transform="matrix(0.09259259259259256,0,0,0.09259259259259256,0,0)" xlink:href="#bX"/><use transform="matrix(0.09259259259259256,0,0,0.09259259259259256,23.981481481481474,0)" xlink:href="#bO"/><use transform="matrix(0.09259259259259256,0,0,0.09259259259259256,33.24074074074073,0)" xlink:href="#bC"/><use transform="matrix(0.09259259259259256,0,0,0.09259259259259256,42.499999999999986,0)" xlink:href="#bY"/><use transform="matrix(0.09259259259259256,0,0,0.09259259259259256,59.16666666666664,0)" xlink:href="#bV"/><use transform="matrix(0.09259259259259256,0,0,0.09259259259259256,75.8333333333333,0)" xlink:href="#bD"/><use transform="matrix(0.09259259259259256,0,0,0.09259259259259256,86.85185185185182,0)" xlink:href="#bE"/><use transform="matrix(0.09259259259259256,0,0,0.09259259259259256,101.57407407407403,0)" xlink:href="#bX"/><use transform="matrix(0.09259259259259256,0,0,0.09259259259259256,125.55555555555551,0)" xlink:href="#bM"/><use transform="matrix(0.09259259259259256,0,0,0.09259259259259256,136.57407407407402,0)" xlink:href="#bN"/></g><path d="M161-154L85 37C75 66 49 86 8 75V39c18-2 6 24 29 21 30-4 38-32 47-58L21-153c-7-3-20 0-17-12h77v8l-26 4 45 116 43-116-26-4v-8h62v8" id="bZ"/><path d="M52-115c0 93 80 130 150 87l7-35h11l-1 55c-23 7-52 12-83 12C60 4 19-37 15-115c-5-113 97-141 201-114l1 51h-12l-5-30c-15-9-39-16-62-16-66 0-86 41-86 109" id="ca"/><g id="x"><use transform="matrix(0.09259259259259256,0,0,0.09259259259259256,0,0)" xlink:href="#bK"/><use transform="matrix(0.09259259259259256,0,0,0.09259259259259256,16.66666666666666,0)" xlink:href="#bF"/><use transform="matrix(0.09259259259259256,0,0,0.09259259259259256,33.33333333333332,0)" xlink:href="#bP"/><use transform="matrix(0.09259259259259256,0,0,0.09259259259259256,42.59259259259258,0)" xlink:href="#bZ"/><use transform="matrix(0.09259259259259256,0,0,0.09259259259259256,59.25925925925924,0)" xlink:href="#ca"/><use transform="matrix(0.09259259259259256,0,0,0.09259259259259256,81.48148148148145,0)" xlink:href="#bK"/><use transform="matrix(0.09259259259259256,0,0,0.09259259259259256,98.14814814814811,0)" xlink:href="#bF"/><use transform="matrix(0.09259259259259256,0,0,0.09259259259259256,114.81481481481478,0)" xlink:href="#bC"/><use transform="matrix(0.09259259259259256,0,0,0.09259259259259256,124.074074074074,0)" xlink:href="#bD"/><use transform="matrix(0.09259259259259256,0,0,0.09259259259259256,135.09259259259252,0)" xlink:href="#bK"/><use transform="matrix(0.09259259259259256,0,0,0.09259259259259256,151.75925925925918,0)" xlink:href="#bP"/><use transform="matrix(0.09259259259259256,0,0,0.09259259259259256,161.01851851851845,0)" xlink:href="#bP"/><use transform="matrix(0.09259259259259256,0,0,0.09259259259259256,170.27777777777771,0)" xlink:href="#bI"/><use transform="matrix(0.09259259259259256,0,0,0.09259259259259256,184.99999999999994,0)" xlink:href="#bD"/><use transform="matrix(0.09259259259259256,0,0,0.09259259259259256,196.01851851851845,0)" xlink:href="#bM"/><use transform="matrix(0.09259259259259256,0,0,0.09259259259259256,207.03703703703695,0)" xlink:href="#bN"/></g></defs></g></svg>